# xmcd CD database file
#
# Track frame offsets:
#	225
#	12197
#	23875
#	36415
#	49287
#	62010
#	74532
#	91582
#	105867
#	116432
#	126245
#	135447
#
# Disc length: 2010 seconds
#
# Revision: 0
# Processed by: cddbd v1.5.1PL0 Copyright (c) Steve Scherf et al.
# Submitted via: CDex 1.51
#
DISCID=9a07d70c
DTITLE=Stompin' Tom Connors - The North Atlantic Squadron
DYEAR=1900
DGENRE=Country
TTITLE0=The North Atlantic Squadron
TTITLE1=Red River Jane
TTITLE2=High, Dry and Blue
TTITLE3=Blue Nose
TTITLE4=Back Yardin
TTITLE5=Jack Of Many Trades
TTITLE6=Unity
TTITLE7=Fleur De Lis
TTITLE8=I'll Love YOu All Over Again
TTITLE9={Too Late To Hurry} When Snow Flurries Fall
TTITLE10=Take Me Down The River
TTITLE11=Gypsy Chant
EXTD=
EXTT0=
EXTT1=
EXTT2=
EXTT3=
EXTT4=
EXTT5=
EXTT6=
EXTT7=
EXTT8=
EXTT9=
EXTT10=
EXTT11=
PLAYORDER=
